<?xml version="1.0" standalone="no"?>
<!DOCTYPE svg PUBLIC "-//W3C//DTD SVG 20010904//EN"
 "http://www.w3.org/TR/2001/REC-SVG-20010904/DTD/svg10.dtd">
<svg version="1.0" xmlns="http://www.w3.org/2000/svg"
 width="500.000000pt" height="500.000000pt" viewBox="0 0 500.000000 500.000000"
 preserveAspectRatio="xMidYMid meet">
<metadata>
Created by potrace 1.14, written by Peter Selinger 2001-2017
</metadata>
<g transform="translate(0.000000,500.000000) scale(0.100000,-0.100000)"
fill="#000000" stroke="none">
<path d="M2400 4948 c-52 -28 -167 -88 -255 -133 -88 -45 -241 -123 -340 -174
-99 -52 -261 -135 -360 -186 -99 -50 -250 -128 -335 -173 -85 -44 -231 -119
-325 -167 -93 -47 -237 -121 -320 -163 l-150 -78 0 -1374 0 -1374 160 -82 c88
-46 232 -120 320 -165 88 -45 234 -120 325 -167 286 -148 520 -268 680 -350
85 -43 236 -121 335 -172 99 -51 212 -109 252 -130 40 -20 79 -43 88 -50 16
-13 16 -14 370 169 181 94 420 217 705 363 96 50 247 128 335 173 88 46 237
122 330 170 94 47 237 121 320 163 l150 78 0 1374 0 1375 -150 77 c-82 42
-226 116 -320 164 -93 47 -242 124 -330 169 -190 98 -459 237 -680 350 -88 45
-243 125 -345 178 -102 53 -219 113 -260 134 -41 21 -76 41 -78 46 -6 13 -26
6 -122 -45z"/>
</g>
</svg>
